<?xml version="1.0" encoding="utf-8"?>
<!-- Generator: Adobe Illustrator 24.0.1, SVG Export Plug-In . SVG Version: 6.00 Build 0)  -->
<svg version="1.1" xmlns="http://www.w3.org/2000/svg" xmlns:xlink="http://www.w3.org/1999/xlink" x="0px" y="0px"
	 viewBox="0 0 612 610" style="enable-background:new 0 0 612 610;" xml:space="preserve">
<style type="text/css">
	.st0{display:none;}
	.st1{display:inline;}
	.st2{fill:#FFFFFF;}
	.st3{display:inline;fill:#FFFFFF;}
	.st4{display:inline;fill:none;stroke:#FFFFFF;stroke-linecap:round;}
</style>
<g id="Layer_1" class="st0">
	<g id="Layer_3" transform="translate(208.68 2981.18)">
		<g id="Grupo_174" transform="translate(64.32 51.82)" class="st1">
			<g id="Grupo_171">
				<path id="Caminho_268" class="st2" d="M32-2423c-168.45,0-305-136.55-305-305c0-168.45,136.55-305,305-305s305,136.55,305,305
					C336.82-2559.63,200.37-2423.18,32-2423z M32-2996.61c-148.34,0-268.59,120.25-268.59,268.59S-116.34-2459.43,32-2459.43
					s268.59-120.25,268.59-268.59l0,0C300.45-2876.3,180.28-2996.47,32-2996.61z"/>
			</g>
			<g id="Grupo_172" transform="translate(26.027 9.657)">
				<path id="Caminho_269" class="st2" d="M6.49-2726.46c-6.16,0.01-11.17-4.99-11.17-11.15c0-0.01,0-0.02,0-0.02
					c0-24.68-0.1-59.87-0.16-94.64L-5-2922.39c-0.01-6.16,4.99-11.17,11.15-11.17c0.01,0,0.02,0,0.02,0l0,0
					c6.16-0.01,11.17,4.99,11.17,11.15c0,0.01,0,0.01,0,0.02l0.16,90.17c0,34.87,0.1,69.96,0.16,94.64
					c-0.05,6.14-5.03,11.1-11.17,11.13V-2726.46z"/>
			</g>
			<g id="Grupo_173" transform="translate(26.055 25.999)">
				<path id="Caminho_270" class="st2" d="M6.46-2742.65c-6.17-0.01-11.16-5.02-11.15-11.19c0.01-6.15,5-11.14,11.15-11.15
					l88.04-0.16c35.55,0,71.56-0.1,96.78-0.16l0,0c6.19,0,11.2,5.01,11.2,11.2s-5.01,11.2-11.2,11.2c-25.2,0-61.23,0.1-96.78,0.16
					C94.51-2742.75,6.46-2742.65,6.46-2742.65z"/>
			</g>
		</g>
	</g>
	<g id="Grupo_181" transform="translate(327.438 2970.52)">
		<g id="Grupo_175" transform="translate(280.562 74.559)" class="st1">
			<path id="Caminho_272" class="st2" d="M-368.2-2435.14h-215.7c-11.35-0.02-20.56-9.21-20.59-20.57v-432.28
				c0.01-11.37,9.22-20.58,20.59-20.6h215.7c11.37,0.02,20.58,9.23,20.59,20.6v432.28C-347.64-2444.35-356.84-2435.16-368.2-2435.14
				z M-583.9-2901.86c-7.67,0.01-13.88,6.22-13.89,13.89v432.27c0.01,7.67,6.22,13.88,13.89,13.89h215.7
				c7.67-0.01,13.88-6.22,13.89-13.89v-432.28c-0.01-7.67-6.22-13.88-13.89-13.89L-583.9-2901.86z"/>
		</g>
		<g id="Grupo_176" transform="translate(311.412 81.498)" class="st1">
			<path id="Caminho_273" class="st2" d="M-50.64-2442.08h-215.7c-11.37-0.02-20.58-9.23-20.59-20.6v-353.87
				c0.01-11.37,9.22-20.58,20.59-20.6h215.7c11.37,0.02,20.58,9.23,20.59,20.6v353.88C-30.07-2451.3-39.28-2442.1-50.64-2442.08z
				 M-266.35-2830.44c-7.67,0.01-13.88,6.22-13.89,13.89v353.88c0.01,7.67,6.22,13.89,13.89,13.89h215.7
				c7.67-0.01,13.88-6.22,13.89-13.89v-353.88c-0.01-7.67-6.22-13.89-13.89-13.89L-266.35-2830.44z"/>
		</g>
		<g id="Grupo_177" transform="translate(293.161 62.48)" class="st1">
			<path id="Caminho_274" class="st2" d="M-221.28-2811.42c-1.87,0-3.39-1.52-3.39-3.39v-197.54c-0.01-7.67-6.22-13.88-13.89-13.89
				h-215.7c-7.67,0.01-13.88,6.22-13.89,13.89v119.21c-0.26,1.85-1.98,3.14-3.83,2.88c-1.49-0.21-2.66-1.38-2.88-2.88v-119.21
				c0.02-11.37,9.23-20.58,20.6-20.59h215.7c11.37,0.01,20.58,9.22,20.6,20.59v197.64C-218-2812.91-219.47-2811.45-221.28-2811.42z"
				/>
		</g>
		<rect id="Retângulo_48" x="-168.71" y="-2896.1" class="st3" width="230.25" height="42.89"/>
		<rect id="Retângulo_49" x="-57.94" y="-2826.93" class="st3" width="119.48" height="42.89"/>
		<rect id="Retângulo_50" x="-57.94" y="-2755.84" class="st3" width="75.42" height="42.89"/>
		<rect id="Retângulo_51" x="-57.94" y="-2684.76" class="st3" width="75.42" height="42.89"/>
		<rect id="Retângulo_52" x="-57.94" y="-2613.68" class="st3" width="75.42" height="42.89"/>
		<rect id="Retângulo_53" x="-57.94" y="-2542.59" class="st3" width="75.42" height="42.89"/>
		<g id="Grupo_180" transform="translate(285.151 77.998)" class="st1">
			<g id="Grupo_178">
				<rect id="Retângulo_54" x="-557.25" y="-2873.17" class="st2" width="42.89" height="42.89"/>
				<rect id="Retângulo_55" x="-557.25" y="-2804.77" class="st2" width="42.89" height="42.89"/>
				<rect id="Retângulo_56" x="-557.25" y="-2736.38" class="st2" width="42.89" height="42.89"/>
				<rect id="Retângulo_57" x="-557.25" y="-2667.97" class="st2" width="42.89" height="42.89"/>
				<rect id="Retângulo_58" x="-557.25" y="-2599.58" class="st2" width="42.89" height="42.89"/>
			</g>
			<g id="Grupo_179" transform="translate(9.772 0.049)">
				<rect id="Retângulo_59" x="-456.67" y="-2872.67" class="st2" width="42.89" height="42.89"/>
				<rect id="Retângulo_60" x="-456.67" y="-2804.26" class="st2" width="42.89" height="42.89"/>
				<rect id="Retângulo_61" x="-456.67" y="-2735.87" class="st2" width="42.89" height="42.89"/>
				<rect id="Retângulo_62" x="-456.67" y="-2667.47" class="st2" width="42.89" height="42.89"/>
				<rect id="Retângulo_63" x="-456.67" y="-2599.07" class="st2" width="42.89" height="42.89"/>
			</g>
		</g>
		<rect id="Retângulo_64" x="-228.43" y="-2466.87" class="st3" width="80.4" height="102.94"/>
		<rect id="Retângulo_65" x="76.57" y="-2702.65" class="st3" width="42.89" height="42.89"/>
		<rect id="Retângulo_66" x="186.37" y="-2702.65" class="st3" width="42.89" height="42.89"/>
		<rect id="Retângulo_67" x="76.57" y="-2631.57" class="st3" width="42.89" height="42.89"/>
		<rect id="Retângulo_68" x="186.37" y="-2631.57" class="st3" width="42.89" height="42.89"/>
		<rect id="Retângulo_69" x="76.57" y="-2560.47" class="st3" width="42.89" height="42.89"/>
		<rect id="Retângulo_70" x="186.37" y="-2560.47" class="st3" width="42.89" height="42.89"/>
		<rect id="Retângulo_71" x="117.62" y="-2466.87" class="st3" width="80.4" height="102.94"/>
		<line id="Linha_1" class="st4" x1="-62.09" y1="-2412.82" x2="19.52" y2="-2412.82"/>
	</g>
	<g id="Grupo_226" transform="translate(8 104)">
		<path id="União_1" class="st3" d="M282.7,493.56c54.41,0.5,98.96-43.14,99.59-97.56c-0.07-33.18-17.12-64.02-45.19-81.72
			l-5.74-3.67V-42.91c0-26.88-21.79-48.67-48.67-48.67s-48.67,21.79-48.67,48.67v353.47l-5.74,3.67
			c-28.07,17.7-45.12,48.54-45.19,81.72C183.7,450.38,228.26,494.06,282.7,493.56 M282.7,505.99
			c-61.31,0.56-111.47-48.69-112.04-110.01c0.09-37.42,19.3-72.2,50.92-92.2V-42.91c0.01-33.75,27.38-61.11,61.13-61.09
			c33.74,0.01,61.08,27.36,61.09,61.09v346.69c31.63,20,50.85,54.79,50.94,92.21C394.17,457.31,344.01,506.55,282.7,505.99z"/>
		<path id="União_2" class="st3" d="M282.71,443.74c26.88,0.57,49.15-20.72,49.81-47.59c-0.3-20.48-13.6-38.5-33.08-44.84
			l-8.43-2.88V-33.48c0-4.59-3.72-8.3-8.3-8.3s-8.3,3.72-8.3,8.3v381.89l-8.43,2.87c-19.5,6.33-32.8,24.36-33.1,44.86
			c0.65,26.88,22.93,48.16,49.81,47.59 M282.68,456.16c-33.75,0.59-61.6-26.27-62.23-60.02c0.27-25.82,16.96-48.6,41.5-56.64V-33.48
			c0-11.46,9.29-20.75,20.75-20.75s20.75,9.29,20.75,20.75v372.99c24.54,8.04,41.23,30.82,41.5,56.64
			c-0.62,33.77-28.49,60.64-62.26,60.04L282.68,456.16z"/>
	</g>
</g>
<g id="Layer_2">
	<g id="Grupo_227" transform="translate(1565.483 3248.274)">
		<g id="Grupo_216" transform="translate(-620.117 63.93)">
			<path id="Caminho_301" class="st2" d="M-401.53-2764.75h-475.66v-229.95l220.81-196.8c7.2-6.38,18.01-6.48,25.33-0.24
				l229.53,196.95V-2764.75z M-863.95-2778h449.17v-210.71l-224.92-192.99c-2.28-1.94-5.64-1.91-7.88,0.08l-216.37,192.85V-2778z
				 M-567.58-2852.44h-44.65c-10.37-0.02-18.76-8.42-18.77-18.78v-44.62c0.04-10.34,8.43-18.71,18.77-18.72h44.62
				c10.33,0.04,18.69,8.4,18.72,18.72v44.62C-548.89-2860.89-557.24-2852.49-567.58-2852.44z M-612.2-2921.37
				c-3.05,0-5.53,2.48-5.53,5.53v44.62c0,3.05,2.47,5.53,5.53,5.54h44.62c3.05-0.01,5.53-2.48,5.53-5.54v-44.62
				c0-3.05-2.48-5.53-5.53-5.53H-612.2z M-666.54-2852.44h-44.62c-10.37-0.01-18.77-8.41-18.78-18.78v-44.62
				c0.04-10.35,8.43-18.72,18.78-18.72h44.62c10.33,0.04,18.69,8.4,18.72,18.72v44.62
				C-647.82-2860.88-656.18-2852.48-666.54-2852.44L-666.54-2852.44z M-711.16-2921.37c-3.05,0-5.53,2.47-5.54,5.53v44.62
				c0.01,3.06,2.48,5.53,5.54,5.54h44.62c3.05-0.01,5.52-2.49,5.52-5.54v-44.62c0-3.05-2.47-5.52-5.52-5.53H-711.16z
				 M-567.59-2949.83h-44.64c-10.34-0.01-18.74-8.38-18.77-18.72v-44.67c0.04-10.34,8.43-18.71,18.77-18.72h44.62
				c10.33,0.04,18.69,8.4,18.72,18.72v44.62c-0.01,10.33-8.36,18.72-18.69,18.77H-567.59z M-612.21-3018.74
				c-3.05,0-5.53,2.48-5.53,5.53v44.62c0,3.05,2.48,5.53,5.53,5.53h44.62c3.05,0,5.53-2.48,5.53-5.53v-44.63
				c0-3.05-2.48-5.53-5.53-5.53L-612.21-3018.74z M-666.55-2949.83h-44.62c-10.35-0.01-18.75-8.38-18.78-18.72v-44.67
				c0.04-10.35,8.43-18.72,18.78-18.72h44.62c10.33,0.04,18.69,8.4,18.72,18.72v44.62c-0.01,10.34-8.37,18.72-18.7,18.77
				L-666.55-2949.83z M-711.17-3018.74c-3.05,0-5.53,2.47-5.54,5.53v44.62c0.01,3.05,2.48,5.53,5.54,5.53h44.62
				c3.05-0.01,5.52-2.48,5.52-5.53v-44.63c0-3.05-2.47-5.52-5.52-5.53L-711.17-3018.74z"/>
		</g>
		<g id="Grupo_217" transform="translate(-627.039 53.848)">
			<path id="Caminho_302" class="st2" d="M-361.86-3003.66h-16.96l-1.85-1.58c-1.71-1.46-171.81-146.26-227.46-195.17
				c-20.96-18.42-32.84-21.09-57.78,0.64c-54.44,47.42-216.51,192.96-218.14,194.43l-1.89,1.7H-903
				c-14.7,0.49-28.13-8.3-33.57-21.97c-4.47-12.05-0.76-25.6,9.21-33.69l239.47-206.23c32.12-26.76,78.76-26.76,110.88,0
				l239.47,206.23c9.98,8.09,13.69,21.65,9.22,33.69C-333.75-3011.96-347.17-3003.18-361.86-3003.66z M-373.95-3016.91h12.09
				c9.15,0.45,17.61-4.88,21.16-13.32c2.59-6.86,0.37-14.6-5.45-19.05l0,0l-239.47-206.24c-27.25-22.23-66.37-22.23-93.62,0
				l-239.47,206.24c-5.82,4.45-8.03,12.19-5.44,19.05c3.55,8.45,12.01,13.77,21.16,13.32h11.98
				c18.4-16.51,165.09-148.16,216.4-192.86c28.15-24.52,47.84-24.64,75.22-0.6C-546.96-3164.29-392.68-3032.83-373.95-3016.91
				L-373.95-3016.91z"/>
		</g>
		<g id="Grupo_218" transform="translate(-620.117 54.73)">
			<path id="Caminho_303" class="st2" d="M-877.19-3141.9v-112.73c0.01-12.8,10.39-23.18,23.19-23.19h56.49
				c12.8,0.02,23.17,10.39,23.19,23.19v24.14L-877.19-3141.9z M-854-3264.57c-5.49,0.01-9.94,4.45-9.94,9.94v83.84l76.37-65.77
				v-18.07c-0.01-5.49-4.45-9.94-9.94-9.94H-854z"/>
		</g>
	</g>
</g>
</svg>
