<?xml version="1.0" encoding="utf-8"?>
<!-- Generator: Adobe Illustrator 24.0.1, SVG Export Plug-In . SVG Version: 6.00 Build 0)  -->
<svg version="1.1" id="Layer_1" xmlns="http://www.w3.org/2000/svg" xmlns:xlink="http://www.w3.org/1999/xlink" x="0px" y="0px"
	 viewBox="0 0 900 600" style="enable-background:new 0 0 900 600;" xml:space="preserve">
<style type="text/css">
	.st0{fill:#FFFFFF;}
	.st1{opacity:0.34;}
	.st2{fill:none;stroke:#FFFFFF;stroke-width:2;}
</style>
<g id="Grupo_215" transform="translate(1001.043 3235.938)">
	<g id="Grupo_200" transform="translate(-745.84 76.971)">
		<path id="Caminho_287" class="st0" d="M-77.12-2944.8l-4.3-0.82c-1.8-0.34-3.59-0.71-5.43-1.11
			c-54.66-11.89-103.04-43.48-135.92-88.74c-18.57-23.37-29.63-51.81-31.7-81.59c-1.5-21.8,6.2-43.24,21.23-59.1
			c22.57-21.76,56.28-20.52,85.88,3.16c9.68,8.15,18.55,17.22,26.47,27.09l0.18,0.2c7.35,9.48,15.91,17.96,25.46,25.22l1.21,0.82
			l-0.16,1.44c-0.26,2.36-0.39,4.73-0.4,7.1v5.39l-3.69-2.23c-12.1-8.13-22.79-18.2-31.62-29.8c-7.5-9.38-15.89-18.01-25.05-25.78
			c-24.91-19.94-51.68-21.42-69.85-3.89c-30.9,29.81-17.46,85.28,11.8,124.68c31.37,43.02,77.51,72.95,129.58,84.05l1.35,0.29
			l0.45,1.3c1.01,2.9,2.03,5.65,2.96,8.19L-77.12-2944.8z M-195.08-3186.74c-13-0.09-25.51,4.97-34.79,14.08
			c-14.04,14.91-21.19,35.01-19.74,55.44c2.04,28.78,12.76,56.27,30.73,78.84c32.18,44.32,79.55,75.25,133.07,86.88l1.01,0.22
			c-0.34-0.95-0.69-1.94-1.01-2.94c-52.69-11.58-99.33-42.03-131.12-85.62c-30.51-41.1-44.18-99.32-11.27-131.08
			c20.07-19.36,49.31-17.98,76.28,3.6c9.37,7.92,17.94,16.73,25.61,26.31c7.77,10,16.82,18.94,26.92,26.58
			c0.05-0.95,0.12-1.91,0.2-2.88c-9.38-7.33-17.83-15.78-25.16-25.16l-0.23-0.27c-7.73-9.65-16.38-18.53-25.82-26.51
			C-162.89-3179.97-178.64-3186.14-195.08-3186.74L-195.08-3186.74z"/>
	</g>
	<g id="Grupo_201" transform="translate(-681.103 100.495)">
		<path id="Caminho_288" class="st0" d="M341.54-2967.31l-4.19-2.47c1.34-2.26,2.61-4.54,3.78-6.8l4.32,2.25
			C344.24-2972.01,342.92-2969.64,341.54-2967.31z"/>
	</g>
	<g id="Grupo_202" transform="translate(-679.113 85.024)">
		<path id="Caminho_289" class="st0" d="M358.57-3108.51c-0.56-2.42-1.6-4.71-3.04-6.72l3.97-2.82c1.81,2.54,3.1,5.42,3.79,8.46
			L358.57-3108.51z"/>
	</g>
	<g id="Grupo_203" transform="translate(-673.876 76.971)">
		<path id="Caminho_290" class="st0" d="M404.46-2946.76l-1.01-4.76c53.51-11.62,100.86-42.54,133.01-86.85
			c18-22.56,28.72-50.05,30.74-78.84c1.46-20.42-5.69-40.53-19.72-55.44c-20.72-19.95-51.92-18.59-79.49,3.46
			c-9.5,8.02-18.2,16.95-25.97,26.66c-6.26,7.81-13.17,15.07-20.65,21.72c0.14,1.01,0.25,1.93,0.36,2.89
			c8.07-6.96,15.47-14.66,22.12-22.98l0.24-0.28c7.61-9.51,16.13-18.25,25.44-26.1c26.96-21.57,56.17-22.95,76.24-3.6
			c32.94,31.77,19.27,89.99-11.27,131.08c-30.75,42.58-75.82,72.64-126.95,84.66l-1.14-4.73c50.01-11.76,94.11-41.17,124.18-82.83
			c29.27-39.4,42.72-94.87,11.8-124.68c-18.18-17.53-44.93-16.04-69.83,3.9c-9.06,7.66-17.36,16.19-24.78,25.46l-0.19,0.23
			c-7.75,9.9-16.68,18.82-26.58,26.55l-3.74,2.7l-0.11-4.61c-0.07-2.77-0.34-5.53-0.79-8.26l-0.23-1.4l1.11-0.89
			c7.69-6.66,14.75-14.01,21.09-21.97c7.96-9.95,16.88-19.1,26.64-27.3c29.6-23.67,63.31-24.92,85.91-3.16
			c15.03,15.87,22.72,37.3,21.21,59.1c-2.05,29.78-13.1,58.24-31.7,81.59C507.52-2990.19,459.13-2958.61,404.46-2946.76z"/>
	</g>
	<g id="Grupo_204" transform="translate(-676.263 100.378)">
		<path id="Caminho_291" class="st0" d="M386.06-2967.78l-4.45-1.98c1.23-2.77,2.35-5.55,3.3-7.89l4.51,1.81
			C388.46-2973.45,387.31-2970.62,386.06-2967.78z"/>
	</g>
	<g id="Grupo_214" transform="translate(-730.553 67.245)">
		<g id="Grupo_205" transform="translate(0)">
			<path id="Caminho_292" class="st0" d="M182.09-2744.86c-4.66-0.18-9.27-0.5-13.93-0.93c-113.21-10.14-189.67-80.73-225.23-121.88
				c-9.09-10.55-17.21-21.9-24.25-33.91c-6.74-11.44-12.5-23.43-17.24-35.83l4.54-1.73c4.63,12.15,10.27,23.89,16.86,35.1
				c6.89,11.76,14.84,22.87,23.73,33.2c35.04,40.57,110.49,110.19,222,120.21c4.58,0.43,9.13,0.73,13.49,0.91
				c4.15-0.18,8.67-0.5,13.25-0.91c29.25-2.64,57.96-9.56,85.2-20.54c52.84-21.95,99.72-56.11,136.82-99.68
				c9.09-10.54,17.18-21.89,24.19-33.92c6.61-11.33,12.24-23.21,16.83-35.5c1.01-2.63,2.03-5.35,2.99-8.32
				c8.32-24.91,12.55-51.01,12.53-77.28v-75.48c0-0.68,0-1.33,0-2.03c-0.07-2.8-0.34-5.59-0.8-8.35
				c-3.04-21.08-17.37-38.81-37.35-46.2c-9.89-3.45-20.02-7.57-30.14-12.23c-29.86-14.05-58.22-31.1-84.63-50.88
				c-11.71-8.69-23.94-16.67-36.62-23.88c-48.32-27.34-84.69-31-102.15-30.8h-0.25c-19.94-0.3-61.68,4.49-117.08,39.74
				c-7.35,4.72-14.66,9.74-21.72,14.94c-34.9,26.65-73.6,47.92-114.8,63.11c-21.01,7.9-35.67,27.08-37.77,49.43
				c-0.26,2.36-0.39,4.73-0.4,7.1v75.49c-0.03,26.7,4.35,53.23,12.96,78.51l-4.6,1.57c-8.77-25.79-13.23-52.84-13.19-80.08v-75.44
				c0-2.56,0.14-5.12,0.43-7.66c2.31-24.21,18.23-44.97,41.01-53.49c40.74-15.03,79-36.07,113.51-62.43
				c7.1-5.26,14.53-10.35,21.98-15.12c56.49-35.93,99.26-40.78,119.74-40.5c18.07-0.21,55.45,3.54,104.77,31.44
				c12.85,7.31,25.24,15.39,37.11,24.2c26.15,19.59,54.22,36.47,83.78,50.38c9.98,4.6,19.98,8.65,29.71,12.06
				c21.67,7.97,37.24,27.16,40.57,50c0.49,2.95,0.77,5.93,0.85,8.93c0,0.68,0.05,1.44,0.05,2.22v75.49
				c0.02,26.79-4.29,53.41-12.78,78.82c-1.01,3.04-2.03,5.82-3.04,8.5c-4.69,12.54-10.44,24.65-17.18,36.21
				c-7.16,12.28-15.43,23.88-24.71,34.65c-37.61,44.15-85.14,78.76-138.69,101c-27.67,11.15-56.82,18.18-86.53,20.87
				C191.13-2745.37,186.53-2745.06,182.09-2744.86z M182.09-2764.35c-4.06-0.17-7.93-0.44-12.17-0.81
				c-106.5-9.56-178.71-76.31-212.3-115.23c-13.87-16.12-25.27-34.2-33.84-53.67l4.45-1.97c8.37,19.02,19.51,36.7,33.07,52.46
				c33.11,38.37,104.29,104.16,209.05,113.6c4.12,0.37,7.94,0.63,11.69,0.79c3.57-0.17,7.52-0.44,11.52-0.79
				c104.7-9.41,175.87-75.19,208.94-113.6c13.7-15.91,24.93-33.79,33.31-53.04c1.24-2.78,2.36-5.56,3.31-7.91
				c10.12-25.92,15.28-53.51,15.21-81.34v-75.56c0.53-16.73-9.52-31.98-25.1-38.09c-43.04-15.83-83.46-38.03-119.92-65.85
				c-59.94-44.27-104.47-50.89-125.65-50.89h-3.38c-21.19,0-65.69,6.61-125.63,50.89c-36.49,27.8-76.93,49.99-119.98,65.84
				c-15.61,6.12-25.67,21.41-25.1,38.17v75.49c-0.07,28.07,5.19,55.91,15.48,82.03l-4.52,1.79c-10.51-26.69-15.88-55.13-15.81-83.81
				v-75.49c-0.58-18.84,10.81-35.99,28.4-42.76c42.58-15.68,82.58-37.65,118.67-65.16c61.06-45.11,106.73-51.84,128.52-51.84h3.38
				c21.8,0,67.48,6.73,128.55,51.84c36.08,27.53,76.08,49.49,118.67,65.16c17.56,6.77,28.94,23.87,28.4,42.68v75.58
				c0.08,28.45-5.18,56.66-15.52,83.17c-1.01,2.41-2.11,5.24-3.38,8.11c-8.57,19.69-20.06,37.98-34.08,54.24
				c-33.59,38.93-105.83,105.67-212.22,115.23c-4.15,0.32-8.18,0.56-12.03,0.73L182.09-2764.35z M181.98-2808.19h-0.13
				c-2.54-0.12-5.12-0.32-7.84-0.57c-91.29-8.21-153.94-66.32-183.2-100.25c-27.65-32.62-42.68-74.08-42.35-116.84v-62.48
				c-0.01-8.75,5.34-16.62,13.48-19.83c41.25-16.92,80.16-39.06,115.78-65.88c52.91-39.05,89.33-43.27,102.54-43.27h3.53
				c13.19,0,49.58,4.29,102.39,43.27c35.08,26.41,73.34,48.29,113.9,65.13c4.4,1.77,8.19,4.79,10.89,8.68
				c1.8,2.53,3.08,5.39,3.77,8.42c0.46,1.89,0.7,3.82,0.7,5.76v60.19c0.08,29.5-6.97,58.59-20.55,84.77
				c-1.21,2.32-2.53,4.69-3.91,7.02c-5.19,8.87-11.18,17.26-17.89,25.04c-29.26,33.93-91.94,92.05-182.99,100.22
				c-2.8,0.24-5.48,0.45-8,0.59L181.98-2808.19z M-46.71-3025.85c-0.34,41.59,14.27,81.93,41.16,113.66
				c28.78,33.36,90.42,90.53,179.96,98.58c2.6,0.23,5.07,0.43,7.51,0.55c2.44-0.14,5.07-0.33,7.73-0.57
				c89.33-8.02,150.95-65.19,179.72-98.56c6.52-7.57,12.33-15.72,17.38-24.34c1.35-2.27,2.62-4.56,3.78-6.81
				c13.22-25.49,20.08-53.81,19.99-82.52v-60.19c0-1.56-0.19-3.11-0.56-4.63l0,0c-0.56-2.42-1.6-4.71-3.04-6.72
				c-2.17-3.13-5.2-5.55-8.73-6.97c-40.93-16.99-79.55-39.07-114.96-65.72c-51.65-38.13-86.79-42.3-99.5-42.33h-3.52
				c-12.73,0-47.91,4.13-99.64,42.33c-35.96,27.06-75.23,49.41-116.87,66.49c-6.28,2.47-10.4,8.53-10.4,15.28V-3025.85z"/>
		</g>
		<g id="Grupo_206" transform="translate(2.156 2.16)" class="st1">
			<path id="Caminho_293" class="st2" d="M427.89-3143.98c-42.82-15.75-83.04-37.82-119.31-65.49
				c-60.51-44.69-105.6-51.36-127.1-51.36h-3.38c-21.48,0-66.57,6.66-127.08,51.36c-36.29,27.66-76.52,49.74-119.34,65.49
				c-16.59,6.45-27.31,22.67-26.74,40.46v75.46c-0.04,28.38,5.26,56.51,15.64,82.92c1.05,2.65,2.14,5.28,3.29,7.88
				c8.47,19.25,19.75,37.13,33.47,53.07c33.36,38.67,105.08,104.91,210.68,114.4c4.06,0.36,7.95,0.63,11.8,0.8
				c3.82-0.17,7.76-0.44,11.85-0.8c105.57-9.49,177.25-75.74,210.6-114.4c13.86-16.09,25.22-34.18,33.7-53.65
				c1.17-2.63,2.26-5.3,3.34-7.98c10.2-26.22,15.41-54.11,15.36-82.24v-75.56C455.19-3121.39,444.47-3137.56,427.89-3143.98z
				 M410.84-3028.06c0.1,29.11-6.86,57.82-20.29,83.65c-1.22,2.33-2.51,4.65-3.84,6.91c-5.11,8.75-11.02,17.02-17.64,24.7
				c-29.03,33.64-91.16,91.29-181.36,99.4c-2.77,0.24-5.43,0.44-7.93,0.59c-2.51-0.12-5.07-0.31-7.74-0.56
				c-90.36-8.11-152.55-65.77-181.56-99.4c-27.28-32.19-42.08-73.1-41.73-115.28v-62.48c0.01-7.75,4.75-14.71,11.95-17.57
				c41.45-16.98,80.55-39.22,116.32-66.18c52.34-38.63,88.15-42.79,101.09-42.79h3.53c13.09,0,48.81,4.31,100.94,42.79
				c35.24,26.54,73.68,48.52,114.42,65.42c3.96,1.59,7.37,4.31,9.81,7.81c1.62,2.28,2.78,4.86,3.41,7.59
				c0.42,1.7,0.63,3.45,0.63,5.2L410.84-3028.06z"/>
		</g>
		<g id="Grupo_207" transform="translate(6.234 6.238)" class="st1">
			<path id="Caminho_294" class="st0" d="M175.72-2814.44h-0.13c-2.54-0.12-5.12-0.32-7.84-0.57
				c-91.24-8.21-153.94-66.32-183.2-100.25c-27.65-32.62-42.68-74.08-42.35-116.84v-62.48c-0.01-8.75,5.34-16.62,13.48-19.83
				c41.25-16.92,80.16-39.06,115.78-65.88c52.91-39.05,89.33-43.27,102.54-43.27h3.53c13.19,0,49.58,4.29,102.39,43.27
				c35.08,26.41,73.34,48.29,113.9,65.13c4.4,1.77,8.19,4.79,10.89,8.68c1.8,2.54,3.08,5.41,3.77,8.44c0.46,1.88,0.7,3.81,0.7,5.75
				v60.19c0.08,29.5-6.97,58.59-20.55,84.77c-1.21,2.32-2.53,4.69-3.91,7.02c-5.19,8.87-11.18,17.26-17.89,25.04
				c-29.26,33.93-91.94,92.05-182.99,100.22c-2.8,0.24-5.48,0.45-8,0.59L175.72-2814.44z M174.01-3218.68
				c-12.73,0-47.91,4.13-99.64,42.33c-35.96,27.06-75.23,49.41-116.87,66.49c-6.29,2.47-10.42,8.55-10.41,15.31v62.48
				c-0.34,41.59,14.27,81.93,41.16,113.66c28.78,33.36,90.42,90.53,179.96,98.58c2.6,0.23,5.07,0.43,7.51,0.55
				c2.44-0.14,5.07-0.33,7.73-0.57c89.33-8.02,150.95-65.19,179.72-98.56c6.52-7.57,12.33-15.72,17.38-24.34
				c1.35-2.27,2.62-4.56,3.78-6.81c13.22-25.49,20.08-53.81,19.99-82.52v-60.19c0-1.56-0.19-3.11-0.56-4.63
				c-0.56-2.43-1.59-4.73-3.04-6.77c-2.17-3.13-5.2-5.55-8.73-6.97c-40.92-17-79.53-39.09-114.92-65.75
				c-51.65-38.13-86.79-42.3-99.5-42.33L174.01-3218.68z"/>
		</g>
		<g id="Grupo_208" transform="translate(6.234 6.238)">
			<path id="Caminho_295" class="st0" d="M175.72-2814.44h-0.13c-2.54-0.12-5.12-0.32-7.84-0.57
				c-91.24-8.21-153.94-66.32-183.2-100.25c-27.65-32.62-42.68-74.08-42.35-116.84v-62.48c-0.01-8.75,5.34-16.62,13.48-19.83
				c41.25-16.92,80.16-39.06,115.78-65.88c52.91-39.05,89.33-43.27,102.54-43.27h3.53c13.19,0,49.58,4.29,102.39,43.27
				c35.08,26.41,73.34,48.29,113.9,65.13c4.4,1.77,8.19,4.79,10.89,8.68c1.8,2.54,3.08,5.41,3.77,8.44c0.46,1.88,0.7,3.81,0.7,5.75
				v60.19c0.08,29.5-6.97,58.59-20.55,84.77c-1.21,2.32-2.53,4.69-3.91,7.02c-5.19,8.87-11.18,17.26-17.89,25.04
				c-29.26,33.93-91.94,92.05-182.99,100.22c-2.8,0.24-5.48,0.45-8,0.59L175.72-2814.44z M174.01-3218.68
				c-12.73,0-47.91,4.13-99.64,42.33c-35.96,27.06-75.23,49.41-116.87,66.49c-6.29,2.47-10.42,8.55-10.41,15.31v62.48
				c-0.34,41.59,14.27,81.93,41.16,113.66c28.78,33.36,90.42,90.53,179.96,98.58c2.6,0.23,5.07,0.43,7.51,0.55
				c2.44-0.14,5.07-0.33,7.73-0.57c89.33-8.02,150.95-65.19,179.72-98.56c6.52-7.57,12.33-15.72,17.38-24.34
				c1.35-2.27,2.62-4.56,3.78-6.81c13.22-25.49,20.08-53.81,19.99-82.52v-60.19c0-1.56-0.19-3.11-0.56-4.63
				c-0.56-2.43-1.59-4.73-3.04-6.77c-2.17-3.13-5.2-5.55-8.73-6.97c-40.92-17-79.53-39.09-114.92-65.75
				c-51.65-38.13-86.79-42.3-99.5-42.33L174.01-3218.68z"/>
		</g>
		<g id="Grupo_209" transform="translate(8.635 8.635)">
			<path id="Caminho_296" class="st0" d="M173.25-2841.21h-0.13c-1.79-0.1-3.63-0.24-5.54-0.42c-31.77-3-62.54-12.72-90.27-28.5
				c-21.3-12.05-40.94-26.81-58.43-43.92h-1.44v-1.43c-5.98-5.91-11.67-11.99-16.92-18.07c-8.09-9.38-14.94-19.75-20.39-30.88
				c-6.22-12.67-10.67-26.14-13.25-40.01v-0.24c-1.81-9.83-2.72-19.8-2.72-29.79v-60.44l1.52-0.62
				c15.48-6.32,30.61-13.46,45.33-21.39c15.62-8.35,31.44-17.85,47-28.27c8.5-5.63,17.08-11.64,25.53-17.89
				c48.41-35.75,79.66-38.54,88.09-38.54h2.58h1.08c8.44,0,39.56,2.88,87.8,38.54c8.36,6.19,16.94,12.17,25.5,17.88
				c15.58,10.41,31.44,19.91,47,28.28c14.73,7.94,29.88,15.08,45.38,21.39l1.52,0.62v60.44c0.01,10.07-0.92,20.11-2.76,30.01
				c-2.57,13.89-7.04,27.37-13.28,40.04c-5.45,11.12-12.3,21.5-20.39,30.88c-5.7,6.58-11.66,12.91-17.71,18.82
				c-17.62,17.41-37.47,32.42-59.02,44.63c-27.65,15.77-58.33,25.47-90.02,28.47l-1.01,0.08c-1.7,0.14-3.32,0.28-4.9,0.37
				L173.25-2841.21z M21.49-2918.29l0.11,0.11c17.37,17.1,36.91,31.84,58.13,43.85c27.13,15.44,57.22,24.95,88.29,27.89
				c1.8,0.16,3.55,0.3,5.23,0.4c1.49-0.08,3.04-0.21,4.62-0.34l1.01-0.08c31-2.94,61.02-12.44,88.06-27.87
				c21.18-12,40.68-26.74,58-43.85c5.95-5.8,11.82-12.03,17.43-18.51c7.82-9.06,14.44-19.09,19.71-29.84
				c6.04-12.28,10.37-25.33,12.86-38.79c1.79-9.6,2.68-19.35,2.68-29.12v-57.18c-15.13-6.23-29.93-13.24-44.33-21
				c-15.74-8.43-31.7-18.02-47.4-28.51c-8.62-5.72-17.24-11.79-25.69-18.02c-47.06-34.77-76.85-37.53-84.86-37.53h-1.09h-2.63
				c-8.02,0-37.95,2.71-85.2,37.53c-8.51,6.3-17.16,12.36-25.72,18.02c-15.69,10.5-31.64,20.09-47.4,28.51
				c-14.39,7.76-29.17,14.77-44.28,21v57.18c0,9.77,0.89,19.52,2.68,29.12v0.24c2.5,13.37,6.8,26.33,12.79,38.54
				c5.26,10.75,11.89,20.79,19.71,29.85c5.42,6.16,11.23,12.34,17.33,18.36L21.49-2918.29z"/>
		</g>
		<g id="Grupo_210" transform="translate(8.635 20)" class="st1">
			<path id="Caminho_297" class="st0" d="M173.35-3031.57c-69.8,0.03-139.37-8.09-207.29-24.18l-1.87-0.45v-41.53l3.04,0.75
				c135.38,33.48,276.89,33.48,412.27,0l3.04-0.75v41.53l-1.87,0.45C312.75-3039.65,243.16-3031.54,173.35-3031.57z M-30.95-3060.04
				c134.37,31.47,274.2,31.47,408.58,0v-31.44c-134.23,32.67-274.35,32.67-408.58,0V-3060.04z"/>
		</g>
		<g id="Grupo_211" transform="translate(12.649 14.147)" class="st1">
			<path id="Caminho_298" class="st0" d="M169.31-3103.17c-54.19-0.01-108.28-4.95-161.58-14.75l-6.85-1.26l6.15-3.29
				c15.62-8.34,31.44-17.85,46.99-28.27l0.76-0.51l0.91,0.12c75.4,10.09,151.8,10.09,227.2,0l0.91-0.12l0.76,0.51
				c15.58,10.4,31.39,19.91,47,28.27l6.09,3.29l-6.84,1.26C277.54-3108.13,223.48-3103.19,169.31-3103.17z M15.43-3121.48
				c101.8,17.92,205.95,17.92,307.76,0c-13.5-7.47-27.11-15.75-40.57-24.69c-75.23,9.99-151.45,9.99-226.67,0
				C42.54-3137.25,28.93-3128.94,15.43-3121.48L15.43-3121.48z"/>
		</g>
		<g id="Grupo_212" transform="translate(8.839 27.707)" class="st1">
			<path id="Caminho_299" class="st0" d="M173.12-2961.37c-64.39-0.04-128.58-7.03-191.47-20.84l-1.15-0.25l-0.52-1.01
				c-6.22-12.67-10.67-26.14-13.25-40.01l-0.69-3.7l3.66,0.89c133.66,32.55,273.18,32.55,406.84,0l3.66-0.9l-0.69,3.71
				c-2.57,13.89-7.04,27.37-13.28,40.04l-0.52,1.01l-1.14,0.25C301.7-2968.38,237.5-2961.4,173.12-2961.37z M-16.16-2986.73
				c124.7,27.3,253.84,27.3,378.54,0c5.23-10.83,9.12-22.26,11.6-34.03c-132.05,31.54-269.68,31.54-401.73,0
				c2.48,11.77,6.37,23.21,11.58,34.05V-2986.73z"/>
		</g>
		<g id="Grupo_213" transform="translate(13.404 36.372)" class="st1">
			<path id="Caminho_300" class="st0" d="M168.58-2892.54c-31.74-0.01-63.47-1.7-95.03-5.07l-0.5-0.05l-0.44-0.24
				c-21.59-12.22-41.47-27.22-59.14-44.63l-5.69-5.56l7.82,1.42c101.12,18.41,204.72,18.41,305.84,0l7.81-1.42l-5.67,5.55
				c-17.63,17.41-37.48,32.42-59.03,44.63l-0.44,0.24l-0.5,0.05C232.05-2894.24,200.33-2892.55,168.58-2892.54z M74.56-2902.36
				c62.51,6.62,125.54,6.62,188.05,0c18.68-10.61,36.04-23.39,51.73-38.07c-96.51,16.64-195.16,16.64-291.67,0
				C38.42-2925.75,55.84-2912.98,74.56-2902.36z"/>
		</g>
	</g>
</g>
</svg>
