<?xml version="1.0" encoding="utf-8"?>
<!-- Generator: Adobe Illustrator 24.0.1, SVG Export Plug-In . SVG Version: 6.00 Build 0)  -->
<svg version="1.1" id="Layer_1" xmlns="http://www.w3.org/2000/svg" xmlns:xlink="http://www.w3.org/1999/xlink" x="0px" y="0px"
	 viewBox="0 0 612 610" style="enable-background:new 0 0 612 610;" xml:space="preserve">
<style type="text/css">
	.st0{display:none;}
	.st1{display:inline;}
	.st2{fill:#FFFFFF;}
	.st3{fill:none;stroke:#FFFFFF;stroke-linecap:round;}
</style>
<g id="Layer_3" transform="translate(208.68 2981.18)" class="st0">
	<g id="Grupo_174" transform="translate(64.32 51.82)" class="st1">
		<g id="Grupo_171">
			<path id="Caminho_268" class="st2" d="M32-2423c-168.45,0-305-136.55-305-305c0-168.45,136.55-305,305-305s305,136.55,305,305
				C336.82-2559.63,200.37-2423.18,32-2423z M32-2996.61c-148.34,0-268.59,120.25-268.59,268.59S-116.34-2459.43,32-2459.43
				s268.59-120.25,268.59-268.59l0,0C300.45-2876.3,180.28-2996.47,32-2996.61z"/>
		</g>
		<g id="Grupo_172" transform="translate(26.027 9.657)">
			<path id="Caminho_269" class="st2" d="M6.49-2726.46c-6.16,0.01-11.17-4.99-11.17-11.15c0-0.01,0-0.02,0-0.02
				c0-24.68-0.1-59.87-0.16-94.64L-5-2922.39c-0.01-6.16,4.99-11.17,11.15-11.17c0.01,0,0.02,0,0.02,0l0,0
				c6.16-0.01,11.17,4.99,11.17,11.15c0,0.01,0,0.01,0,0.02l0.16,90.17c0,34.87,0.1,69.96,0.16,94.64
				c-0.05,6.14-5.03,11.1-11.17,11.13V-2726.46z"/>
		</g>
		<g id="Grupo_173" transform="translate(26.055 25.999)">
			<path id="Caminho_270" class="st2" d="M6.46-2742.65c-6.17-0.01-11.16-5.02-11.15-11.19c0.01-6.15,5-11.14,11.15-11.15
				l88.04-0.16c35.55,0,71.56-0.1,96.78-0.16l0,0c6.19,0,11.2,5.01,11.2,11.2s-5.01,11.2-11.2,11.2c-25.2,0-61.23,0.1-96.78,0.16
				C94.51-2742.75,6.46-2742.65,6.46-2742.65z"/>
		</g>
	</g>
</g>
<g id="Grupo_181" transform="translate(327.438 2970.52)">
	<g id="Grupo_175" transform="translate(280.562 74.559)">
		<path id="Caminho_272" class="st2" d="M-368.2-2435.14h-215.7c-11.35-0.02-20.56-9.21-20.59-20.57v-432.28
			c0.01-11.37,9.22-20.58,20.59-20.6h215.7c11.37,0.02,20.58,9.23,20.59,20.6v432.28C-347.64-2444.35-356.84-2435.16-368.2-2435.14z
			 M-583.9-2901.86c-7.67,0.01-13.88,6.22-13.89,13.89v432.27c0.01,7.67,6.22,13.88,13.89,13.89h215.7
			c7.67-0.01,13.88-6.22,13.89-13.89v-432.28c-0.01-7.67-6.22-13.88-13.89-13.89L-583.9-2901.86z"/>
	</g>
	<g id="Grupo_176" transform="translate(311.412 81.498)">
		<path id="Caminho_273" class="st2" d="M-50.64-2442.08h-215.7c-11.37-0.02-20.58-9.23-20.59-20.6v-353.87
			c0.01-11.37,9.22-20.58,20.59-20.6h215.7c11.37,0.02,20.58,9.23,20.59,20.6v353.88C-30.07-2451.3-39.28-2442.1-50.64-2442.08z
			 M-266.35-2830.44c-7.67,0.01-13.88,6.22-13.89,13.89v353.88c0.01,7.67,6.22,13.89,13.89,13.89h215.7
			c7.67-0.01,13.88-6.22,13.89-13.89v-353.88c-0.01-7.67-6.22-13.89-13.89-13.89L-266.35-2830.44z"/>
	</g>
	<g id="Grupo_177" transform="translate(293.161 62.48)">
		<path id="Caminho_274" class="st2" d="M-221.28-2811.42c-1.87,0-3.39-1.52-3.39-3.39v-197.54c-0.01-7.67-6.22-13.88-13.89-13.89
			h-215.7c-7.67,0.01-13.88,6.22-13.89,13.89v119.21c-0.26,1.85-1.98,3.14-3.83,2.88c-1.49-0.21-2.66-1.38-2.88-2.88v-119.21
			c0.02-11.37,9.23-20.58,20.6-20.59h215.7c11.37,0.01,20.58,9.22,20.6,20.59v197.64C-218-2812.91-219.47-2811.45-221.28-2811.42z"
			/>
	</g>
	<rect id="Retângulo_48" x="-168.71" y="-2896.1" class="st2" width="230.25" height="42.89"/>
	<rect id="Retângulo_49" x="-57.94" y="-2826.93" class="st2" width="119.48" height="42.89"/>
	<rect id="Retângulo_50" x="-57.94" y="-2755.84" class="st2" width="75.42" height="42.89"/>
	<rect id="Retângulo_51" x="-57.94" y="-2684.76" class="st2" width="75.42" height="42.89"/>
	<rect id="Retângulo_52" x="-57.94" y="-2613.68" class="st2" width="75.42" height="42.89"/>
	<rect id="Retângulo_53" x="-57.94" y="-2542.59" class="st2" width="75.42" height="42.89"/>
	<g id="Grupo_180" transform="translate(285.151 77.998)">
		<g id="Grupo_178">
			<rect id="Retângulo_54" x="-557.25" y="-2873.17" class="st2" width="42.89" height="42.89"/>
			<rect id="Retângulo_55" x="-557.25" y="-2804.77" class="st2" width="42.89" height="42.89"/>
			<rect id="Retângulo_56" x="-557.25" y="-2736.38" class="st2" width="42.89" height="42.89"/>
			<rect id="Retângulo_57" x="-557.25" y="-2667.97" class="st2" width="42.89" height="42.89"/>
			<rect id="Retângulo_58" x="-557.25" y="-2599.58" class="st2" width="42.89" height="42.89"/>
		</g>
		<g id="Grupo_179" transform="translate(9.772 0.049)">
			<rect id="Retângulo_59" x="-456.67" y="-2872.67" class="st2" width="42.89" height="42.89"/>
			<rect id="Retângulo_60" x="-456.67" y="-2804.26" class="st2" width="42.89" height="42.89"/>
			<rect id="Retângulo_61" x="-456.67" y="-2735.87" class="st2" width="42.89" height="42.89"/>
			<rect id="Retângulo_62" x="-456.67" y="-2667.47" class="st2" width="42.89" height="42.89"/>
			<rect id="Retângulo_63" x="-456.67" y="-2599.07" class="st2" width="42.89" height="42.89"/>
		</g>
	</g>
	<rect id="Retângulo_64" x="-228.43" y="-2466.87" class="st2" width="80.4" height="102.94"/>
	<rect id="Retângulo_65" x="76.57" y="-2702.65" class="st2" width="42.89" height="42.89"/>
	<rect id="Retângulo_66" x="186.37" y="-2702.65" class="st2" width="42.89" height="42.89"/>
	<rect id="Retângulo_67" x="76.57" y="-2631.57" class="st2" width="42.89" height="42.89"/>
	<rect id="Retângulo_68" x="186.37" y="-2631.57" class="st2" width="42.89" height="42.89"/>
	<rect id="Retângulo_69" x="76.57" y="-2560.47" class="st2" width="42.89" height="42.89"/>
	<rect id="Retângulo_70" x="186.37" y="-2560.47" class="st2" width="42.89" height="42.89"/>
	<rect id="Retângulo_71" x="117.62" y="-2466.87" class="st2" width="80.4" height="102.94"/>
	<line id="Linha_1" class="st3" x1="-62.09" y1="-2412.82" x2="19.52" y2="-2412.82"/>
</g>
</svg>
