<?xml version="1.0" encoding="utf-8"?>
<!-- Generator: Adobe Illustrator 24.0.1, SVG Export Plug-In . SVG Version: 6.00 Build 0)  -->
<svg version="1.1" id="Layer_1" xmlns="http://www.w3.org/2000/svg" xmlns:xlink="http://www.w3.org/1999/xlink" x="0px" y="0px"
	 viewBox="0 0 612 610" style="enable-background:new 0 0 612 610;" xml:space="preserve">
<style type="text/css">
	.st0{fill:#FFFFFF;}
</style>
<g id="Layer_3" transform="translate(208.68 2981.18)">
	<g id="Grupo_174" transform="translate(64.32 51.82)">
		<g id="Grupo_171">
			<path id="Caminho_268" class="st0" d="M32-2423c-168.45,0-305-136.55-305-305c0-168.45,136.55-305,305-305s305,136.55,305,305
				C336.82-2559.63,200.37-2423.18,32-2423z M32-2996.61c-148.34,0-268.59,120.25-268.59,268.59S-116.34-2459.43,32-2459.43
				s268.59-120.25,268.59-268.59l0,0C300.45-2876.3,180.28-2996.47,32-2996.61z"/>
		</g>
		<g id="Grupo_172" transform="translate(26.027 9.657)">
			<path id="Caminho_269" class="st0" d="M6.49-2726.46c-6.16,0.01-11.17-4.99-11.17-11.15c0-0.01,0-0.02,0-0.02
				c0-24.68-0.1-59.87-0.16-94.64L-5-2922.39c-0.01-6.16,4.99-11.17,11.15-11.17c0.01,0,0.02,0,0.02,0l0,0
				c6.16-0.01,11.17,4.99,11.17,11.15c0,0.01,0,0.01,0,0.02l0.16,90.17c0,34.87,0.1,69.96,0.16,94.64
				c-0.05,6.14-5.03,11.1-11.17,11.13V-2726.46z"/>
		</g>
		<g id="Grupo_173" transform="translate(26.055 25.999)">
			<path id="Caminho_270" class="st0" d="M6.46-2742.65c-6.17-0.01-11.16-5.02-11.15-11.19c0.01-6.15,5-11.14,11.15-11.15
				l88.04-0.16c35.55,0,71.56-0.1,96.78-0.16l0,0c6.19,0,11.2,5.01,11.2,11.2s-5.01,11.2-11.2,11.2c-25.2,0-61.23,0.1-96.78,0.16
				C94.51-2742.75,6.46-2742.65,6.46-2742.65z"/>
		</g>
	</g>
</g>
</svg>
