<?xml version="1.0" encoding="utf-8"?>
<!-- Generator: Adobe Illustrator 24.0.1, SVG Export Plug-In . SVG Version: 6.00 Build 0)  -->
<svg version="1.1" xmlns="http://www.w3.org/2000/svg" xmlns:xlink="http://www.w3.org/1999/xlink" x="0px" y="0px"
	 viewBox="0 0 612 610" style="enable-background:new 0 0 612 610;" xml:space="preserve">
<style type="text/css">
	.st0{display:none;}
	.st1{display:inline;}
	.st2{fill:#FFFFFF;}
	.st3{display:inline;fill:#FFFFFF;}
	.st4{display:inline;fill:none;stroke:#FFFFFF;stroke-linecap:round;}
</style>
<g id="Layer_1" class="st0">
	<g id="Layer_3" transform="translate(208.68 2981.18)">
		<g id="Grupo_174" transform="translate(64.32 51.82)" class="st1">
			<g id="Grupo_171">
				<path id="Caminho_268" class="st2" d="M32-2423c-168.45,0-305-136.55-305-305c0-168.45,136.55-305,305-305s305,136.55,305,305
					C336.82-2559.63,200.37-2423.18,32-2423z M32-2996.61c-148.34,0-268.59,120.25-268.59,268.59S-116.34-2459.43,32-2459.43
					s268.59-120.25,268.59-268.59l0,0C300.45-2876.3,180.28-2996.47,32-2996.61z"/>
			</g>
			<g id="Grupo_172" transform="translate(26.027 9.657)">
				<path id="Caminho_269" class="st2" d="M6.49-2726.46c-6.16,0.01-11.17-4.99-11.17-11.15c0-0.01,0-0.02,0-0.02
					c0-24.68-0.1-59.87-0.16-94.64L-5-2922.39c-0.01-6.16,4.99-11.17,11.15-11.17c0.01,0,0.02,0,0.02,0l0,0
					c6.16-0.01,11.17,4.99,11.17,11.15c0,0.01,0,0.01,0,0.02l0.16,90.17c0,34.87,0.1,69.96,0.16,94.64
					c-0.05,6.14-5.03,11.1-11.17,11.13V-2726.46z"/>
			</g>
			<g id="Grupo_173" transform="translate(26.055 25.999)">
				<path id="Caminho_270" class="st2" d="M6.46-2742.65c-6.17-0.01-11.16-5.02-11.15-11.19c0.01-6.15,5-11.14,11.15-11.15
					l88.04-0.16c35.55,0,71.56-0.1,96.78-0.16l0,0c6.19,0,11.2,5.01,11.2,11.2s-5.01,11.2-11.2,11.2c-25.2,0-61.23,0.1-96.78,0.16
					C94.51-2742.75,6.46-2742.65,6.46-2742.65z"/>
			</g>
		</g>
	</g>
	<g id="Grupo_181" transform="translate(327.438 2970.52)">
		<g id="Grupo_175" transform="translate(280.562 74.559)" class="st1">
			<path id="Caminho_272" class="st2" d="M-368.2-2435.14h-215.7c-11.35-0.02-20.56-9.21-20.59-20.57v-432.28
				c0.01-11.37,9.22-20.58,20.59-20.6h215.7c11.37,0.02,20.58,9.23,20.59,20.6v432.28C-347.64-2444.35-356.84-2435.16-368.2-2435.14
				z M-583.9-2901.86c-7.67,0.01-13.88,6.22-13.89,13.89v432.27c0.01,7.67,6.22,13.88,13.89,13.89h215.7
				c7.67-0.01,13.88-6.22,13.89-13.89v-432.28c-0.01-7.67-6.22-13.88-13.89-13.89L-583.9-2901.86z"/>
		</g>
		<g id="Grupo_176" transform="translate(311.412 81.498)" class="st1">
			<path id="Caminho_273" class="st2" d="M-50.64-2442.08h-215.7c-11.37-0.02-20.58-9.23-20.59-20.6v-353.87
				c0.01-11.37,9.22-20.58,20.59-20.6h215.7c11.37,0.02,20.58,9.23,20.59,20.6v353.88C-30.07-2451.3-39.28-2442.1-50.64-2442.08z
				 M-266.35-2830.44c-7.67,0.01-13.88,6.22-13.89,13.89v353.88c0.01,7.67,6.22,13.89,13.89,13.89h215.7
				c7.67-0.01,13.88-6.22,13.89-13.89v-353.88c-0.01-7.67-6.22-13.89-13.89-13.89L-266.35-2830.44z"/>
		</g>
		<g id="Grupo_177" transform="translate(293.161 62.48)" class="st1">
			<path id="Caminho_274" class="st2" d="M-221.28-2811.42c-1.87,0-3.39-1.52-3.39-3.39v-197.54c-0.01-7.67-6.22-13.88-13.89-13.89
				h-215.7c-7.67,0.01-13.88,6.22-13.89,13.89v119.21c-0.26,1.85-1.98,3.14-3.83,2.88c-1.49-0.21-2.66-1.38-2.88-2.88v-119.21
				c0.02-11.37,9.23-20.58,20.6-20.59h215.7c11.37,0.01,20.58,9.22,20.6,20.59v197.64C-218-2812.91-219.47-2811.45-221.28-2811.42z"
				/>
		</g>
		<rect id="Retângulo_48" x="-168.71" y="-2896.1" class="st3" width="230.25" height="42.89"/>
		<rect id="Retângulo_49" x="-57.94" y="-2826.93" class="st3" width="119.48" height="42.89"/>
		<rect id="Retângulo_50" x="-57.94" y="-2755.84" class="st3" width="75.42" height="42.89"/>
		<rect id="Retângulo_51" x="-57.94" y="-2684.76" class="st3" width="75.42" height="42.89"/>
		<rect id="Retângulo_52" x="-57.94" y="-2613.68" class="st3" width="75.42" height="42.89"/>
		<rect id="Retângulo_53" x="-57.94" y="-2542.59" class="st3" width="75.42" height="42.89"/>
		<g id="Grupo_180" transform="translate(285.151 77.998)" class="st1">
			<g id="Grupo_178">
				<rect id="Retângulo_54" x="-557.25" y="-2873.17" class="st2" width="42.89" height="42.89"/>
				<rect id="Retângulo_55" x="-557.25" y="-2804.77" class="st2" width="42.89" height="42.89"/>
				<rect id="Retângulo_56" x="-557.25" y="-2736.38" class="st2" width="42.89" height="42.89"/>
				<rect id="Retângulo_57" x="-557.25" y="-2667.97" class="st2" width="42.89" height="42.89"/>
				<rect id="Retângulo_58" x="-557.25" y="-2599.58" class="st2" width="42.89" height="42.89"/>
			</g>
			<g id="Grupo_179" transform="translate(9.772 0.049)">
				<rect id="Retângulo_59" x="-456.67" y="-2872.67" class="st2" width="42.89" height="42.89"/>
				<rect id="Retângulo_60" x="-456.67" y="-2804.26" class="st2" width="42.89" height="42.89"/>
				<rect id="Retângulo_61" x="-456.67" y="-2735.87" class="st2" width="42.89" height="42.89"/>
				<rect id="Retângulo_62" x="-456.67" y="-2667.47" class="st2" width="42.89" height="42.89"/>
				<rect id="Retângulo_63" x="-456.67" y="-2599.07" class="st2" width="42.89" height="42.89"/>
			</g>
		</g>
		<rect id="Retângulo_64" x="-228.43" y="-2466.87" class="st3" width="80.4" height="102.94"/>
		<rect id="Retângulo_65" x="76.57" y="-2702.65" class="st3" width="42.89" height="42.89"/>
		<rect id="Retângulo_66" x="186.37" y="-2702.65" class="st3" width="42.89" height="42.89"/>
		<rect id="Retângulo_67" x="76.57" y="-2631.57" class="st3" width="42.89" height="42.89"/>
		<rect id="Retângulo_68" x="186.37" y="-2631.57" class="st3" width="42.89" height="42.89"/>
		<rect id="Retângulo_69" x="76.57" y="-2560.47" class="st3" width="42.89" height="42.89"/>
		<rect id="Retângulo_70" x="186.37" y="-2560.47" class="st3" width="42.89" height="42.89"/>
		<rect id="Retângulo_71" x="117.62" y="-2466.87" class="st3" width="80.4" height="102.94"/>
		<line id="Linha_1" class="st4" x1="-62.09" y1="-2412.82" x2="19.52" y2="-2412.82"/>
	</g>
	<g id="Grupo_226" transform="translate(8 104)">
		<path id="União_1" class="st3" d="M282.7,493.56c54.41,0.5,98.96-43.14,99.59-97.56c-0.07-33.18-17.12-64.02-45.19-81.72
			l-5.74-3.67V-42.91c0-26.88-21.79-48.67-48.67-48.67s-48.67,21.79-48.67,48.67v353.47l-5.74,3.67
			c-28.07,17.7-45.12,48.54-45.19,81.72C183.7,450.38,228.26,494.06,282.7,493.56 M282.7,505.99
			c-61.31,0.56-111.47-48.69-112.04-110.01c0.09-37.42,19.3-72.2,50.92-92.2V-42.91c0.01-33.75,27.38-61.11,61.13-61.09
			c33.74,0.01,61.08,27.36,61.09,61.09v346.69c31.63,20,50.85,54.79,50.94,92.21C394.17,457.31,344.01,506.55,282.7,505.99z"/>
		<path id="União_2" class="st3" d="M282.71,443.74c26.88,0.57,49.15-20.72,49.81-47.59c-0.3-20.48-13.6-38.5-33.08-44.84
			l-8.43-2.88V-33.48c0-4.59-3.72-8.3-8.3-8.3s-8.3,3.72-8.3,8.3v381.89l-8.43,2.87c-19.5,6.33-32.8,24.36-33.1,44.86
			c0.65,26.88,22.93,48.16,49.81,47.59 M282.68,456.16c-33.75,0.59-61.6-26.27-62.23-60.02c0.27-25.82,16.96-48.6,41.5-56.64V-33.48
			c0-11.46,9.29-20.75,20.75-20.75s20.75,9.29,20.75,20.75v372.99c24.54,8.04,41.23,30.82,41.5,56.64
			c-0.62,33.77-28.49,60.64-62.26,60.04L282.68,456.16z"/>
	</g>
</g>
<g id="Layer_2">
	<g id="Grupo_225" transform="translate(-261.819 355.552)">
		<g id="Grupo_224" transform="translate(871 2948)">
			<g id="Grupo_220" transform="translate(0 0)">
				<path id="Caminho_304" class="st2" d="M-415.04-2693.55c-17.3,0.02-32.93-10.32-39.68-26.25c-9.21-21.78,0.98-46.89,22.75-56.1
					c0.04-0.02,0.07-0.03,0.11-0.05c6.27-2.67,13.08-3.83,19.87-3.38l16.87-41.46c-37.18-18.21-67.4-48.06-86.06-85.02l-32.93,13.78
					c-0.28,13.14-8.23,24.89-20.33,30.03c-16.88,7.06-36.28-0.89-43.35-17.76c-7.06-16.88,0.89-36.28,17.76-43.35l0,0
					c12.09-4.95,25.96-2.43,35.53,6.48l32.81-13.83c-13.48-39.15-13.72-81.65-0.69-120.95l-41.37-16.92
					c-4.42,5.17-10,9.23-16.28,11.84c-21.78,9.2-46.91-0.99-56.11-22.78c-0.01-0.03-0.02-0.06-0.04-0.09
					c-9.29-21.78,0.83-46.97,22.61-56.27c0.08-0.03,0.16-0.07,0.24-0.1c21.96-8.98,47.05,1.31,56.4,23.11
					c2.62,6.16,3.71,12.87,3.16,19.55l41.46,16.96c18.21-37.18,48.07-67.4,85.03-86.06l-35.7-85.08
					c-10.37-0.89-19.39-7.47-23.39-17.08c-6.05-14.38,0.7-30.94,15.08-36.99c14.38-6.05,30.94,0.7,36.99,15.08
					c4.03,9.58,2.48,20.61-4.05,28.7l35.76,84.99c39.22-13.3,81.69-13.55,121.06-0.72l16.84-41.39c-5.18-4.31-9.23-9.8-11.83-16.01
					c-9.27-21.88,0.95-47.14,22.83-56.41c21.88-9.27,47.14,0.95,56.41,22.83c9.27,21.88-0.95,47.13-22.82,56.4
					c-6.24,2.61-13.02,3.7-19.77,3.17l-16.96,41.46c37.1,18.31,67.26,48.15,85.95,85.05l33.03-13.82
					c0.16-13.05,8.07-24.75,20.11-29.78c8.2-3.52,17.46-3.6,25.71-0.21c8.04,3.26,14.43,9.63,17.74,17.65
					c7.13,16.83-0.74,36.24-17.57,43.37c-12.1,5.12-26.08,2.6-35.63-6.42l-32.88,13.85c13.25,39.22,13.53,81.67,0.79,121.06
					l57.78,23.5c4.07-4.4,9.03-7.89,14.55-10.23c21.95-8.98,47.05,1.28,56.41,23.07l0,0c9.22,21.76-0.95,46.88-22.72,56.1
					c-0.05,0.02-0.1,0.04-0.14,0.06c-21.73,9.32-46.91-0.74-56.23-22.47c-2.98-6.96-4.07-14.58-3.15-22.09l-56.66-23.26
					c-18.23,37.14-48.02,67.36-84.9,86.13l9.43,22.42c18.43,0.22,33.18,15.33,32.97,33.76c-0.22,18.43-15.33,33.18-33.76,32.97
					c-18.43-0.22-33.19-15.33-32.97-33.76c0.1-8.38,3.34-16.41,9.09-22.5l-9.55-22.7c-39.19,13.37-81.65,13.66-121.02,0.83
					l-16.97,41.46c5.18,4.34,9.26,9.85,11.91,16.07c9.2,21.78-0.99,46.9-22.77,56.11c-0.03,0.01-0.06,0.02-0.09,0.04
					C-403.6-2694.73-409.29-2693.56-415.04-2693.55z M-414.97-2772.35c-4.88,0.06-9.7,1.07-14.19,2.98
					c-18.17,7.66-26.69,28.61-19.03,46.78c0,0,0,0.01,0.01,0.01c7.75,18.26,28.82,26.8,47.1,19.08
					c18.16-7.56,26.76-28.41,19.19-46.58c-2.5-6.01-6.6-11.22-11.86-15.06l-2.48-1.77l1.36-2.71l0.14-0.27v-0.14l18.61-45.53v-4.58
					l4.72,1.65c39.75,13.76,83.02,13.49,122.6-0.77l2.13-0.77l2.33,2.33l12.89,30.62l-1.85,1.69c-10.45,9.7-11.06,26.03-1.36,36.49
					c9.7,10.45,26.03,11.06,36.49,1.36c10.45-9.7,11.06-26.03,1.36-36.49c-5.29-5.7-12.86-8.71-20.61-8.2l-2.47,0.1l-13.95-33.05
					l3.02-1.47c37.82-18.4,68.2-49.22,86.06-87.3l1.43-3.07l68.16,27.91l-0.54,2.84c-3.71,19.39,9.01,38.11,28.39,41.81
					c7.01,1.34,14.26,0.55,20.82-2.27c18.18-7.63,26.73-28.56,19.1-46.74c-0.01-0.02-0.02-0.05-0.03-0.07l0,0
					c-7.6-18.32-28.62-27-46.94-19.4c-0.07,0.03-0.13,0.06-0.2,0.08c-5.27,2.25-9.91,5.75-13.54,10.19l-1.66,2.02l-68.73-27.91
					l1.08-3.18c13.64-39.77,13.37-83-0.76-122.6l-0.78-2.14l2.33-2.33l36.74-15.48l3.84-1.93l1.81,1.99
					c9.55,10.71,25.97,11.66,36.68,2.11c8.34-7.43,11-19.37,6.59-29.64c-2.58-6.29-7.58-11.27-13.87-13.83
					c-6.51-2.66-13.82-2.6-20.28,0.19c-10.15,4.25-16.46,14.5-15.69,25.48l0.15,2.33l-2.12,1.05c-0.48,0.23-0.98,0.4-1.49,0.51
					l-0.27,0.09l-35.83,14.99l-3.31,3.31l-2.16-4.54c-18.31-37.86-49.04-68.31-87.07-86.28l-2.02-0.97v-3.2l19-46.42
					c0.03-0.06,0.05-0.12,0.07-0.19c0.12-0.4,0.27-0.79,0.45-1.16l1.16-2.33l2.55,0.4c6.37,0.96,12.88,0.16,18.82-2.33
					c18.26-7.76,26.77-28.86,19-47.11s-28.86-26.77-47.12-19c-18.24,7.76-26.75,28.82-19.02,47.07c2.47,5.92,6.54,11.05,11.75,14.8
					l3.36,2.44l-2.59,2.59l-19.62,48.22h-3.25l-0.56-0.19c-39.69-13.65-82.84-13.39-122.35,0.76l-2.11,0.76l-2.33-2.33l-0.28-0.65
					l-38.66-91.87l1.56-1.67c8.09-8.42,7.83-21.82-0.6-29.91c-6.09-5.85-15.08-7.52-22.86-4.25c-10.69,4.61-15.71,16.94-11.28,27.7
					c3.24,7.76,10.83,12.81,19.24,12.79h2.33l38.97,92.86v3.2l-2.01,0.97c-37.83,18.26-68.22,49-86.06,87.03l-0.95,2.05h-3.21
					l-46.44-19l-0.19-0.07c-0.37-0.12-0.74-0.27-1.09-0.44l-2.33-1.16l0.4-2.57c0.98-6.27,0.18-12.68-2.33-18.51
					c-7.82-18.21-28.78-26.8-47.12-19.32c-18.25,7.8-26.73,28.91-18.93,47.16c3.71,8.67,10.67,15.54,19.4,19.13
					c8.76,3.62,18.61,3.55,27.32-0.19c6.01-2.47,11.24-6.54,15.12-11.76l2.45-3.37l2.58,2.6l0.22,0.09l46.2,18.9l2.33,2.33
					l-0.73,2.09c-13.92,39.72-13.65,83.04,0.77,122.59l1.7,4.74h-4.58l-35.46,14.94l-3.85,1.92l-1.8-1.98
					c-7.45-8.14-19.18-10.78-29.4-6.62c-13.27,5.53-19.54,20.77-14.01,34.04c5.53,13.27,20.77,19.54,34.04,14.01
					c10.28-4.28,16.69-14.63,15.96-25.74l-0.24-3.78h3.49l0.28-0.14l0.22-0.1l37.14-15.54h3.21l0.97,2.01
					c18.27,37.83,49.01,68.22,87.06,86.06l2.05,0.95v3.21l-19.15,47.09l-0.14,0.14c-0.06,0.15-0.13,0.3-0.21,0.48l-1.16,2.33
					l-2.57-0.4C-411.89-2772.39-413.43-2772.43-414.97-2772.35z M-227.74-3213.32L-227.74-3213.32z"/>
			</g>
			<g id="Grupo_221" transform="translate(15.948 16.223)">
				<path id="Caminho_305" class="st2" d="M-398.85-3048.69c-22.74,0-41.18-18.44-41.18-41.18s18.44-41.18,41.18-41.18
					c22.74,0,41.18,18.44,41.18,41.18C-357.69-3067.14-376.11-3048.72-398.85-3048.69z M-398.85-3125.37
					c-19.6,0-35.49,15.89-35.49,35.49c0,19.6,15.89,35.49,35.49,35.49s35.49-15.89,35.49-35.49c-0.02-19.6-15.9-35.48-35.49-35.5
					V-3125.37z"/>
			</g>
			<g id="Grupo_222" transform="translate(27.669 21.595)">
				<path id="Caminho_306" class="st2" d="M-261.48-2966.03c-29.8,0-53.96-24.16-53.96-53.96c0-29.8,24.16-53.96,53.96-53.96
					c29.8,0,53.96,24.16,53.96,53.96C-207.55-2990.2-231.69-2966.06-261.48-2966.03z M-261.48-3068.26
					c-26.66,0-48.27,21.61-48.27,48.27c0,26.66,21.61,48.27,48.27,48.27s48.27-21.61,48.27-48.27
					c-0.03-26.65-21.62-48.25-48.27-48.29V-3068.26z"/>
			</g>
			<g id="Grupo_223" transform="translate(19.244 32.34)">
				<path id="Caminho_307" class="st2" d="M-373.76-2897.26c-17.25,0-31.24-13.99-31.24-31.24c0-17.25,13.98-31.24,31.24-31.24
					c17.25,0,31.24,13.99,31.24,31.24C-342.54-2911.26-356.51-2897.28-373.76-2897.26z M-373.76-2954.06
					c-14.13,0-25.59,11.45-25.59,25.58c0,14.13,11.45,25.58,25.58,25.59c14.13,0,25.59-11.45,25.59-25.58c0,0,0,0,0,0
					C-348.17-2942.61-359.62-2954.06-373.76-2954.06L-373.76-2954.06L-373.76-2954.06z"/>
			</g>
		</g>
	</g>
</g>
</svg>
